<svg width="1440" height="350" viewBox="0 0 1440 350" fill="none" xmlns="http://www.w3.org/2000/svg">
<mask id="mask0_78_1381" style="mask-type:luminance" maskUnits="userSpaceOnUse" x="0" y="0" width="1440" height="350">
<path d="M1440 0H0V350H1440V0Z" fill="white"/>
</mask>
<g mask="url(#mask0_78_1381)">
<path d="M-8.89941 -6.34766H1448.27V352.089H-8.89941V-6.34766Z" fill="#FAF4FE"/>
<path d="M253.852 -8.95134C291.848 88.0821 251.547 194.586 163.837 228.931C76.1274 263.276 -25.7773 212.457 -63.7732 115.423C-101.77 18.3895 -23.7193 -18.2312 63.9906 -52.5762C151.7 -86.9212 215.856 -105.985 253.852 -8.95134Z" fill="#F8A7C2"/>
<path d="M132.891 144.026C132.891 123.866 199.38 107.523 281.397 107.523C363.415 107.523 429.904 123.866 429.904 144.026C429.904 164.187 363.415 180.53 281.397 180.53C199.38 180.53 132.891 164.187 132.891 144.026Z" fill="#C8CCFD"/>
<path d="M141.114 135.81C141.114 118.667 161.716 95.7021 178.861 95.7021C196.006 95.7021 209.905 109.6 209.905 126.744C209.905 143.887 196.006 157.785 178.861 157.785C161.716 157.785 141.114 152.954 141.114 135.81Z" fill="#C8CCFD"/>
<path d="M193.27 105.124C193.27 87.981 205.831 79.6758 225.592 79.6758C245.353 79.6758 264.831 87.981 264.831 105.124C264.831 122.268 248.811 136.166 229.05 136.166C209.289 136.166 193.27 122.268 193.27 105.124Z" fill="#C8CCFD"/>
<path d="M245.922 110.434C245.922 93.2903 271.625 74.1992 291.387 74.1992C311.148 74.1992 317.483 93.2903 317.483 110.434C317.483 127.578 301.464 141.475 281.703 141.475C261.942 141.475 245.922 127.578 245.922 110.434Z" fill="#C8CCFD"/>
<path d="M302.422 101.549C302.422 84.405 314.71 67.375 334.471 67.375C354.232 67.375 373.983 84.405 373.983 101.549C373.983 118.692 357.964 132.59 338.203 132.59C318.442 132.59 302.422 118.692 302.422 101.549Z" fill="#C8CCFD"/>
<path d="M350.146 121.83C350.146 104.686 362.433 87.6558 382.194 87.6558C401.955 87.6558 421.707 104.686 421.707 121.83C421.707 138.973 405.688 152.871 385.926 152.871C366.165 152.871 350.146 138.973 350.146 121.83Z" fill="#C8CCFD"/>
<path d="M659.755 243.484C659.755 230.749 718.424 220.425 790.796 220.425C863.169 220.425 921.838 230.749 921.838 243.484C921.838 256.22 863.169 266.544 790.796 266.544C718.424 266.544 659.755 256.22 659.755 243.484Z" fill="#C8CCFD"/>
<path d="M667.012 238.294C667.012 227.464 685.191 212.958 700.319 212.958C715.448 212.958 727.713 221.737 727.713 232.567C727.713 243.397 715.448 252.176 700.319 252.176C685.191 252.176 667.012 249.124 667.012 238.294Z" fill="#C8CCFD"/>
<path d="M713.033 218.91C713.033 208.08 724.117 202.834 741.554 202.834C758.991 202.834 776.178 208.08 776.178 218.91C776.178 229.74 762.043 238.519 744.605 238.519C727.168 238.519 713.033 229.74 713.033 218.91Z" fill="#C8CCFD"/>
<path d="M759.493 222.264C759.493 211.434 782.174 199.374 799.611 199.374C817.048 199.374 822.639 211.434 822.639 222.264C822.639 233.094 808.503 241.873 791.066 241.873C773.629 241.873 759.493 233.094 759.493 222.264Z" fill="#C8CCFD"/>
<path d="M809.349 216.651C809.349 205.821 820.191 195.064 837.628 195.064C855.066 195.064 872.494 205.821 872.494 216.651C872.494 227.481 858.359 236.26 840.922 236.26C823.485 236.26 809.349 227.481 809.349 216.651Z" fill="#C8CCFD"/>
<path d="M851.461 229.463C851.461 218.633 862.303 207.875 879.74 207.875C897.178 207.875 914.606 218.633 914.606 229.463C914.606 240.292 900.471 249.071 883.034 249.071C865.597 249.071 851.461 240.292 851.461 229.463Z" fill="#C8CCFD"/>
<path d="M1222.83 114.108C1222.83 94.6718 1287.95 78.9155 1368.28 78.9155C1448.62 78.9155 1513.74 94.6718 1513.74 114.108C1513.74 133.545 1448.62 149.301 1368.28 149.301C1287.95 149.301 1222.83 133.545 1222.83 114.108Z" fill="#C8CCFD"/>
<path d="M1230.89 106.187C1230.89 89.6591 1251.07 67.5195 1267.86 67.5195C1284.65 67.5195 1298.26 80.9182 1298.26 97.4462C1298.26 113.974 1284.65 127.373 1267.86 127.373C1251.07 127.373 1230.89 122.715 1230.89 106.187Z" fill="#C8CCFD"/>
<path d="M1281.97 76.6035C1281.97 60.0755 1294.27 52.0684 1313.63 52.0684C1332.98 52.0684 1352.06 60.0755 1352.06 76.6035C1352.06 93.1316 1336.37 106.53 1317.01 106.53C1297.66 106.53 1281.97 93.1316 1281.97 76.6035Z" fill="#C8CCFD"/>
<path d="M1333.54 81.7223C1333.54 65.1942 1358.71 46.7886 1378.07 46.7886C1397.42 46.7886 1403.63 65.1942 1403.63 81.7223C1403.63 98.2504 1387.94 111.649 1368.58 111.649C1349.23 111.649 1333.54 98.2504 1333.54 81.7223Z" fill="#C8CCFD"/>
<path d="M1388.88 73.1561C1388.88 56.628 1400.91 40.2095 1420.27 40.2095C1439.62 40.2095 1458.97 56.628 1458.97 73.1561C1458.97 89.6841 1443.28 103.083 1423.92 103.083C1404.57 103.083 1388.88 89.6841 1388.88 73.1561Z" fill="#C8CCFD"/>
<path d="M1435.62 92.7087C1435.62 76.1807 1447.65 59.7622 1467.01 59.7622C1486.36 59.7622 1505.71 76.1807 1505.71 92.7087C1505.71 109.237 1490.02 122.635 1470.66 122.635C1451.31 122.635 1435.62 109.237 1435.62 92.7087Z" fill="#C8CCFD"/>
</g>
</svg>
