<?xml version="1.0" encoding="UTF-8" standalone="no"?>
<!DOCTYPE svg PUBLIC "-//W3C//DTD SVG 1.1//EN" "http://www.w3.org/Graphics/SVG/1.1/DTD/svg11.dtd">
<!-- Created with Vectornator (http://vectornator.io/) -->
<svg height="100%" stroke-miterlimit="10" style="fill-rule:nonzero;clip-rule:evenodd;stroke-linecap:round;stroke-linejoin:round;" version="1.1" viewBox="0 0 2880 1800" width="100%" xml:space="preserve" xmlns="http://www.w3.org/2000/svg" xmlns:vectornator="http://vectornator.io" xmlns:xlink="http://www.w3.org/1999/xlink">
<defs>
<linearGradient gradientTransform="matrix(1 0 0 1 -213.037 -57.7615)" gradientUnits="userSpaceOnUse" id="LinearGradient" x1="886.26" x2="889.283" y1="1435.45" y2="1248.89">
<stop offset="0" stop-color="#5360bf"/>
<stop offset="1" stop-color="#6f7cd8"/>
</linearGradient>
<filter color-interpolation-filters="sRGB" filterUnits="userSpaceOnUse" height="55.6294" id="Filter" width="618.046" x="1992.61" y="1650.15">
<feGaussianBlur in="SourceGraphic" result="Blur" stdDeviation="4"/>
</filter>
<filter color-interpolation-filters="sRGB" filterUnits="userSpaceOnUse" height="55.5976" id="Filter_2" width="441.194" x="2065.45" y="1701.84">
<feGaussianBlur in="SourceGraphic" result="Blur" stdDeviation="4"/>
</filter>
<filter color-interpolation-filters="sRGB" filterUnits="userSpaceOnUse" height="52.8906" id="Filter_3" width="272.177" x="2191.34" y="1740.38">
<feGaussianBlur in="SourceGraphic" result="Blur" stdDeviation="4"/>
</filter>
</defs>
<clipPath id="ArtboardFrame">
<rect height="1800" width="2880" x="0" y="0"/>
</clipPath>
<g clip-path="url(#ArtboardFrame)" id="Layer-3" vectornator:layerName="Layer 3">
<path d="M-7.66963 1.66326L2875.28 1.66326L2875.28 1800.7L-7.66963 1800.7L-7.66963 1.66326Z" fill="#faf4fe" fill-rule="nonzero" opacity="1" stroke="none"/>
<path d="M25.7009 1530.73L2882.7 1530.73L2882.7 1699.45L25.7009 1699.45L25.7009 1530.73Z" fill="#c8ccfd" fill-rule="nonzero" opacity="1" stroke="none"/>
</g>
<g clip-path="url(#ArtboardFrame)" id="Layer-1" vectornator:layerName="Layer 1">
<path d="M-2.51781 1650.52L2881.01 1650.52L2881.01 1806.48L-2.51781 1806.48L-2.51781 1650.52Z" fill="#4f68ce" fill-rule="nonzero" opacity="1" stroke="none"/>
</g>
<g clip-path="url(#ArtboardFrame)" id="Layer-5" vectornator:layerName="Layer 5">
<path d="M369.405 973.638L777.847 1335.82L373.594 1364.07L36.7173 1356.3L369.405 973.638Z" fill="#4f68ce" fill-rule="nonzero" opacity="1" stroke="none"/>
<path d="M1136.78 1221.87L1169.73 1255.63L1323.74 1413.46L1128.06 1416.49L955.419 1417.16L1106.7 1254.26L1136.78 1221.87Z" fill="#161c58" fill-rule="nonzero" opacity="1" stroke="none"/>
<path d="M148.824 1010.87L677.354 1502.78L94.1537 1493.25L-237.78 1487.66L148.824 1010.87Z" fill="#c8ccfd" fill-rule="nonzero" opacity="1" stroke="none"/>
<path d="M1434.86 1046.35L1935 1536.73L1351.8 1527.19L1019.87 1521.61L1179.88 1338.36L1434.86 1046.35Z" fill="#c8ccfd" fill-rule="nonzero" opacity="1" stroke="none"/>
<path d="M1785.18 1208.95L2217.05 1619.81L1702.12 1631.01L1369.11 1616.25L1785.18 1208.95Z" fill="#c8ccfd" fill-rule="nonzero" opacity="1" stroke="none"/>
<path d="M636.228 882.276L1209.42 1452.59L564.795 1452.5L175.086 1451.37L636.228 882.276Z" fill="#c8ccfd" fill-rule="nonzero" opacity="1" stroke="none"/>
<path d="M123.552 1185.04L344.798 1495.09L114.349 1480.24L-114.925 1481.87L123.552 1185.04Z" fill="#5360bf" fill-rule="nonzero" opacity="1" stroke="none"/>
<path d="M439.9 1289.44L640.378 1492.79L432.662 1503.66L245.911 1495.99L439.9 1289.44Z" fill="#5360bf" fill-rule="nonzero" opacity="1" stroke="none"/>
<path d="M674.289 1246.11L861.244 1437.7L665.565 1440.73L492.925 1441.4L674.289 1246.11Z" fill="url(#LinearGradient)" fill-rule="nonzero" opacity="1" stroke="none"/>
<path d="M-16.3291 1241.82L178.579 1406.7L-25.5315 1537.03L-254.806 1538.66L-16.3291 1241.82Z" fill="#5360bf" fill-rule="nonzero" opacity="1" stroke="none"/>
</g>
<g clip-path="url(#ArtboardFrame)" id="Layer-4" vectornator:layerName="Layer 4">
<path d="M1907.32 1309.56C1907.32 1084 2086.34 901.144 2307.17 901.144C2528 901.144 2707.02 1084 2707.02 1309.56C2707.02 1535.13 2505.33 1547.34 2284.5 1547.34C2063.67 1547.34 1907.32 1535.13 1907.32 1309.56Z" fill="#f8a7c2" fill-rule="nonzero" opacity="1" stroke="none"/>
<path d="M2514.12 1230.42L2825.31 1406.05L2452.9 1528.66L2306.74 1525.9L2514.12 1230.42Z" fill="#3344aa" fill-rule="nonzero" opacity="1" stroke="none"/>
<path d="M2338.66 1198.55L2628.29 1527.76L2288.64 1529.01L2125.37 1516.94L2338.66 1198.55Z" fill="#c8ccfd" fill-rule="nonzero" opacity="1" stroke="none"/>
<path d="M2811.54 922.028L3384.73 1492.34L2740.11 1492.25L2470.58 1476.21L2811.54 922.028Z" fill="#c8ccfd" fill-rule="nonzero" opacity="1" stroke="none"/>
<g filter="url(#Filter)" opacity="1" vectornator:blur="8">
<path d="M2217.38 1670.34C2204 1670.47 2190.62 1670.72 2177.25 1671.09C2157.92 1671.64 2138.61 1672.51 2119.28 1673.09C2108.88 1673.41 2098.47 1673.62 2088.06 1673.81C2076.67 1674.02 2065.27 1674.07 2053.88 1674.16C2045.46 1674.22 2037.01 1674.37 2028.59 1674.25C2024.63 1674.19 2020.65 1673.9 2016.69 1673.72C2016.4 1673.72 2016.16 1673.96 2016.16 1674.25C2016.16 1674.54 2016.4 1674.78 2016.69 1674.78C2020.65 1674.62 2024.63 1674.35 2028.59 1674.31C2034.04 1674.26 2039.49 1674.39 2044.94 1674.47C2052.87 1674.58 2060.79 1674.71 2068.72 1674.91C2085.56 1675.32 2102.4 1675.95 2119.22 1676.88C2134.56 1677.72 2149.92 1678.72 2165.25 1679.72C2199.34 1681.94 2233.44 1683.5 2267.59 1684.34C2309.13 1685.37 2350.7 1685.82 2392.25 1685.19C2402.15 1685.04 2412.04 1684.7 2421.94 1684.41C2438.75 1683.9 2455.59 1683.36 2472.41 1682.91C2510.46 1681.89 2548.5 1681.58 2586.56 1681.69C2554.94 1681.44 2523.31 1681.19 2491.72 1679.88C2478.38 1679.32 2465.05 1678.5 2451.72 1677.72C2428.51 1676.35 2405.28 1674.89 2382.06 1673.75C2340.57 1671.71 2299.01 1670.78 2257.47 1670.34C2244.1 1670.2 2230.75 1670.21 2217.38 1670.34Z" fill="#8474c4" stroke="none"/>
</g>
<g filter="url(#Filter_2)" opacity="1" vectornator:blur="8">
<path d="M2262.94 1718.62C2244.48 1718.35 2225.99 1718.66 2207.56 1719.91C2191.8 1720.97 2176.07 1722.65 2160.31 1723.78C2147.67 1724.69 2135.01 1725.22 2122.34 1725.56C2116.88 1725.71 2111.41 1725.78 2105.94 1725.84C2103.21 1725.88 2100.48 1725.95 2097.75 1725.91C2095.02 1725.86 2092.26 1725.58 2089.53 1725.41C2089.24 1725.41 2089 1725.65 2089 1725.94C2089 1726.23 2089.24 1726.47 2089.53 1726.47C2092.26 1726.31 2095.02 1726.03 2097.75 1726C2104.58 1725.92 2111.43 1726.21 2118.25 1726.44C2132.27 1726.91 2146.27 1727.86 2160.22 1729.34C2175.91 1731.01 2191.52 1733.33 2207.19 1735.16C2227.88 1737.57 2248.68 1738.83 2269.5 1739.59C2295.76 1740.56 2322.09 1740.71 2348.34 1739.53C2366.84 1738.7 2385.25 1736.73 2403.72 1735.53C2417.01 1734.67 2430.37 1733.98 2443.69 1733.66C2456.65 1733.34 2469.6 1733.31 2482.56 1733.34C2460.75 1733.06 2438.87 1732.69 2417.12 1730.84C2405.53 1729.86 2393.99 1728.43 2382.44 1727.03C2368.86 1725.38 2355.28 1723.77 2341.66 1722.5C2315.5 1720.07 2289.2 1719.01 2262.94 1718.62Z" fill="#8474c4" stroke="none"/>
</g>
<g filter="url(#Filter_3)" opacity="1" vectornator:blur="8">
<path d="M2314.97 1755.84C2304.03 1755.71 2293.03 1756.21 2282.19 1757.72C2273.55 1758.92 2264.97 1760.56 2256.34 1761.81C2248.97 1762.88 2241.56 1763.55 2234.12 1763.97C2231.01 1764.14 2227.9 1764.26 2224.78 1764.34C2223.23 1764.39 2221.64 1764.48 2220.09 1764.44C2218.54 1764.39 2216.99 1764.16 2215.44 1764C2215.15 1764 2214.9 1764.24 2214.91 1764.53C2214.91 1764.82 2215.15 1765.03 2215.44 1765.03C2216.98 1764.86 2218.54 1764.6 2220.09 1764.53C2221.25 1764.48 2222.46 1764.55 2223.62 1764.56C2226.74 1764.6 2229.86 1764.77 2232.97 1764.94C2240.78 1765.36 2248.55 1766.22 2256.25 1767.59C2264.79 1769.11 2273.27 1771.08 2281.78 1772.75C2293.26 1775 2304.96 1776.08 2316.62 1776.66C2330.61 1777.34 2344.66 1777.42 2358.62 1776.31C2370.83 1775.34 2382.86 1772.99 2395 1771.53C2402.39 1770.65 2409.82 1769.93 2417.25 1769.56C2424.64 1769.2 2432.04 1769.18 2439.44 1769.19C2427.35 1768.96 2415.26 1768.51 2403.25 1767C2397.02 1766.22 2390.84 1764.96 2384.69 1763.72C2377.75 1762.32 2370.82 1760.86 2363.84 1759.69C2347.72 1756.97 2331.3 1756.04 2314.97 1755.84Z" fill="#8474c4" stroke="none"/>
</g>
</g>
<g clip-path="url(#ArtboardFrame)" id="Layer-2" vectornator:layerName="Layer 2">
<path d="M0.567762 1427.42L0.567762 1809.92L72.0053 1809.92C67.8263 1794.26 65.3803 1777.87 65.3803 1760.89C65.3803 1655.96 150.446 1570.89 255.38 1570.89C360.314 1570.89 445.38 1655.96 445.38 1760.89C445.38 1777.87 442.965 1794.26 438.787 1809.92L522.537 1809.92C518.357 1794.26 515.912 1777.88 515.912 1760.89C515.912 1655.96 600.977 1570.89 705.912 1570.89C810.846 1570.89 895.911 1655.96 895.912 1760.89C895.912 1777.87 893.497 1794.26 889.318 1809.92L997.224 1809.92C993.045 1794.26 990.599 1777.87 990.599 1760.89C990.599 1655.96 1075.66 1570.89 1180.6 1570.89C1285.53 1570.89 1370.6 1655.96 1370.6 1760.89C1370.6 1777.87 1368.18 1794.26 1364.01 1809.92L1465.32 1809.92C1461.14 1794.26 1458.69 1777.87 1458.69 1760.89C1458.69 1655.96 1543.76 1570.89 1648.69 1570.89C1753.63 1570.89 1838.69 1655.96 1838.69 1760.89C1838.69 1777.87 1836.28 1794.26 1832.1 1809.92L1945.63 1809.92C1941.45 1794.26 1939.01 1777.88 1939.01 1760.89C1939.01 1655.96 2024.07 1570.89 2129.01 1570.89C2233.94 1570.89 2319.01 1655.96 2319.01 1760.89C2319.01 1777.87 2316.59 1794.26 2312.41 1809.92L2424.1 1809.92C2419.92 1794.26 2417.47 1777.87 2417.47 1760.89C2417.47 1655.96 2502.54 1570.89 2607.47 1570.89C2712.41 1570.89 2797.47 1655.96 2797.47 1760.89C2797.47 1777.87 2795.06 1794.26 2790.88 1809.92L2882.47 1809.92L2882.47 1427.42L0.567762 1427.42Z" fill="#333e9a" fill-rule="nonzero" opacity="1" stroke="none"/>
</g>
<g clip-path="url(#ArtboardFrame)" id="Layer-7" vectornator:layerName="Layer 7">
<g opacity="1" vectornator:layerName="Group">
<path d="M1211.12 1377.96C1209.34 1373.3 1218.66 1363.09 1232.44 1353.61C1241.21 1347.57 1253.62 1341.84 1260.21 1338C1267.58 1333.72 1275.15 1328.44 1282.92 1325.47C1292.49 1321.82 1309.41 1313.66 1316.77 1312.33C1320.9 1311.58 1327.13 1308.22 1330.03 1308.53C1341.69 1309.79 1341.55 1321.6 1343.74 1327.33C1344.4 1329.05 1654.43 1322.11 1699.41 1330.87C1729.71 1336.77 1864.57 1323.41 1922.12 1335.12C1990.41 1349.02 1979.76 1388.01 1978.06 1392.6C1971.36 1410.73 1319.07 1397.15 1298.56 1404.99C1284.34 1410.41 1253.52 1423.55 1239.29 1419.24C1216.88 1412.45 1213.38 1383.89 1211.12 1377.96Z" fill="#ffffff" fill-rule="nonzero" opacity="1" stroke="none"/>
<path d="M1986.61 1363.15C1986.61 1358.25 2005.1 1328.92 2034.72 1327.7C2078.82 1325.88 2148.86 1326.19 2222.13 1326.19C2305.32 1326.19 2550.05 1315.35 2670.28 1327.99C2727.08 1333.96 2721.1 1391.79 2721.1 1395.7C2721.1 1407.91 2343.82 1407.45 2221.33 1407.45C2138.69 1407.45 2042.82 1412.08 2000.83 1401.65C1980.58 1396.62 1986.61 1367.13 1986.61 1363.15Z" fill="#ffffff" fill-rule="nonzero" opacity="1" stroke="none"/>
<path d="M1973.85 1392.93L1318.18 1392.42C1318.18 1392.42 1295.44 1393.34 1279.42 1400.79C1269.83 1405.25 1248.16 1417.19 1248.16 1417.19L1236.43 1417.28C1236.43 1417.28 1263.55 1399.73 1278.35 1391.66C1290.82 1384.87 1310.24 1377.81 1326.78 1375.88C1340.62 1374.27 1414.17 1374.92 1414.17 1374.92L1430.08 1374.93L1430.08 1387.23C1430.08 1389.87 1432.23 1392.02 1434.87 1392.02L1456.04 1392.02C1458.69 1392.02 1460.84 1389.87 1460.84 1387.23L1460.84 1374.96L1973.85 1375.38L1973.85 1392.93ZM1229.73 1364.16C1229.73 1362.52 1232.73 1361.19 1236.43 1361.19C1240.13 1361.19 1243.13 1362.52 1243.13 1364.16C1243.13 1365.8 1240.13 1367.13 1236.43 1367.13C1232.73 1367.13 1229.73 1365.8 1229.73 1364.16M1279.76 1327.37C1289.44 1322.91 1321.47 1309.55 1328.92 1308.8C1327.43 1315.49 1315.51 1328.86 1310.3 1332.57C1305.08 1336.28 1272.31 1348.16 1256.67 1352.62C1243.34 1356.42 1230.58 1356.98 1227.1 1357.06C1246.45 1345.54 1272.45 1330.74 1279.76 1327.37M1218.93 1376.79C1216.25 1376.79 1214.09 1375.13 1214.09 1373.07C1214.09 1371.02 1216.25 1369.36 1218.93 1369.36C1221.6 1369.36 1223.77 1371.02 1223.77 1373.07C1223.77 1375.13 1221.6 1376.79 1218.93 1376.79M1402.28 1341.21L1402.28 1371.05C1402.28 1371.05 1355.83 1370.61 1345.11 1371.05C1334.39 1371.5 1320.1 1372.84 1311.61 1375.51C1303.13 1378.18 1287.49 1383.08 1287.49 1383.08L1279.46 1367.94C1279.46 1367.94 1295.98 1359.03 1310.27 1352.79C1324.89 1346.42 1338.85 1343.44 1354.04 1342.55C1363.86 1341.97 1402.28 1341.21 1402.28 1341.21M1459.65 1335.05L1459.65 1384.36C1459.65 1386.79 1457.67 1388.77 1455.23 1388.77L1435.69 1388.77C1433.25 1388.77 1431.27 1386.79 1431.27 1384.36L1431.27 1335.05C1431.27 1332.61 1433.25 1330.64 1435.69 1330.64L1455.23 1330.64C1457.67 1330.64 1459.65 1332.61 1459.65 1335.05M1470.03 1336.12L1466.37 1336.12L1466.37 1331.24L1470.03 1331.24L1470.03 1336.12ZM1921.62 1370.85L1485.18 1370.85L1485.18 1343.37L1921.62 1343.37L1921.62 1370.85ZM1352.56 1316.96C1368.82 1316.22 1403.7 1317.69 1404.05 1317.7L1970.02 1317.7L1970.02 1320.01L1404 1320.01C1403.6 1320 1368.81 1318.53 1352.67 1319.27C1336.63 1320 1319.65 1325.83 1319.48 1325.89L1321.8 1323.1C1321.97 1323.04 1336.2 1317.7 1352.56 1316.96M1630.41 1310.69L1657.22 1310.69L1657.22 1315.15L1630.41 1315.15L1630.41 1310.69ZM1668.39 1310.69L1695.2 1310.69L1695.2 1315.15L1668.39 1315.15L1668.39 1310.69ZM1701.91 1310.69L1728.72 1310.69L1728.72 1315.15L1701.91 1315.15L1701.91 1310.69ZM1739.89 1310.69L1766.7 1310.69L1766.7 1315.15L1739.89 1315.15L1739.89 1310.69ZM1978.96 1321.09L1978.96 1325.54L1974.49 1325.54L1974.49 1310.69L1926.83 1310.69L1919.38 1313.66L1780.85 1313.66L1772.66 1307.72L1625.2 1308.46L1615.52 1315.89C1615.52 1315.89 1478.48 1315.89 1471.78 1315.15C1465.07 1314.4 1439.01 1313.66 1430.07 1311.43C1421.13 1309.2 1394.32 1304.01 1380.91 1304.01C1367.51 1304.01 1341.22 1304.46 1329.53 1306.98C1322.21 1308.55 1290.05 1321.09 1280.37 1325.54C1270.69 1330 1228.24 1354.51 1211.85 1364.91C1195.47 1375.3 1181.32 1391.64 1179.08 1395.36C1176.85 1399.07 1179.83 1405.75 1179.83 1405.75C1179.83 1405.75 1186.53 1413.92 1191.74 1414.67C1196.96 1415.41 1202.17 1415.41 1202.92 1419.86C1203.66 1424.32 1198.45 1424.32 1198.45 1424.32L1291.54 1422.83L1296.76 1411.7L1298.39 1411.7C1296.31 1414.05 1295.03 1417.14 1295.03 1420.53C1295.03 1427.92 1301.05 1433.92 1308.47 1433.92C1315.88 1433.92 1321.89 1427.92 1321.89 1420.53C1321.89 1417.14 1320.62 1414.05 1318.54 1411.7L1319.36 1411.7L1329.53 1428.03L1351.12 1428.78L1353.36 1422.83L1355.89 1422.83C1356.98 1429.13 1362.48 1433.92 1369.1 1433.92C1375.73 1433.92 1381.22 1429.13 1382.32 1422.83L1825.93 1422.83C1827.03 1429.13 1832.52 1433.92 1839.15 1433.92C1845.77 1433.92 1851.27 1429.13 1852.36 1422.83L1855.33 1422.83L1859.05 1428.03L1882.14 1428.03L1884.38 1422.83L1886.57 1422.83C1887.67 1429.13 1893.16 1433.92 1899.78 1433.92C1906.41 1433.92 1911.9 1429.13 1913 1422.83L1967.79 1422.83L1970.75 1422.83L1970.76 1411.7L1973.75 1411.7L1973.75 1400.55L1977.47 1400.55L1977.47 1404.27L1982.69 1404.27L1982.69 1321.09L1978.96 1321.09Z" fill="#333e9a" fill-rule="nonzero" opacity="1" stroke="none" vectornator:layerName="path"/>
<path d="M2716.53 1391.01L1992.95 1391.01L1992.95 1368.28L2030.39 1368.28L2030.39 1381.27C2030.39 1384.4 2032.94 1386.95 2036.09 1386.95L2052.36 1386.95C2055.51 1386.95 2058.06 1384.4 2058.06 1381.27L2058.06 1368.28L2650.6 1368.28L2650.6 1381.27C2650.6 1384.4 2653.15 1386.95 2656.3 1386.95L2672.58 1386.95C2675.72 1386.95 2678.28 1384.4 2678.28 1381.27L2678.28 1368.28L2716.53 1368.28L2716.53 1391.01ZM2716.53 1397.5L1992.95 1397.5L1992.95 1395.06L2716.53 1395.06L2716.53 1397.5ZM2032.22 1337.31C2032.22 1334.58 2034.43 1332.38 2037.16 1332.38L2051.29 1332.38C2054.02 1332.38 2056.23 1334.58 2056.23 1337.31L2056.23 1378.15C2056.23 1380.87 2054.02 1383.08 2051.29 1383.08L2037.16 1383.08C2034.43 1383.08 2032.22 1380.87 2032.22 1378.15L2032.22 1337.31ZM2115.04 1339.01L2599.18 1339.01L2599.18 1364.92C2600.24 1365.92 2115.04 1365.84 2115.04 1365.84L2115.04 1339.01ZM2287.79 1309.21L2316.48 1309.21L2316.48 1313.31L2287.79 1313.31L2287.79 1309.21ZM2323.2 1309.21L2351.89 1309.21L2351.89 1313.31L2323.2 1313.31L2323.2 1309.21ZM2358.61 1309.21L2387.3 1309.21L2387.3 1313.31L2358.61 1313.31L2358.61 1309.21ZM2394.01 1309.21L2422.7 1309.21L2422.7 1313.31L2394.01 1313.31L2394.01 1309.21ZM2651.82 1336.27C2651.82 1333.41 2654.15 1331.09 2657.02 1331.09L2671.86 1331.09C2674.73 1331.09 2677.06 1333.41 2677.06 1336.27L2677.06 1379.19C2677.06 1382.05 2674.73 1384.37 2671.86 1384.37L2657.02 1384.37C2654.15 1384.37 2651.82 1382.05 2651.82 1379.19L2651.82 1336.27ZM2717.34 1322.42L2717.34 1308.62L2669.73 1308.62L2663.22 1313.09L2438.17 1313.09L2430.03 1306.19L2279.86 1306.19L2274.16 1311.87L2047.48 1311.87L2040.15 1307.81L1993.35 1307.81L1993.35 1322.42L1986.03 1322.42C1986.44 1322.02 1986.03 1401.96 1986.03 1401.96L1994.57 1401.96L1994.57 1408.46L1995.39 1408.46L1995.39 1419.62C1995 1420.01 2030.06 1419.9 2055.39 1419.77C2055.98 1426.4 2061.5 1431.63 2068.31 1431.63C2075.08 1431.63 2080.57 1426.48 2081.22 1419.9L2088.79 1425.7L2111.37 1425.7L2114.42 1419.62L2117.02 1419.62C2117.53 1426.33 2123.1 1431.63 2129.96 1431.63C2136.82 1431.63 2142.38 1426.33 2142.9 1419.62L2569.29 1419.62C2569.81 1426.33 2575.37 1431.63 2582.23 1431.63C2589.09 1431.63 2594.65 1426.33 2595.17 1419.62L2595.46 1419.62L2602.17 1425.7L2624.15 1425.7L2626.59 1420.23L2631 1420.23C2631.8 1426.64 2637.22 1431.63 2643.88 1431.63C2650.53 1431.63 2655.96 1426.64 2656.75 1420.23L2716.33 1420.23L2716.33 1408.46L2716.94 1408.46L2716.94 1402.37L2725.08 1402.37L2725.08 1322.42L2717.34 1322.42Z" fill="#333e9a" fill-rule="nonzero" opacity="1" stroke="none" vectornator:layerName="path"/>
</g>
<path d="M-0.329604 1275.58C343.393 1275.58 704.085 1280.79 1053.1 1273.2C1203.65 1269.92 1358.33 1277.94 1505.9 1274.99C1665.79 1271.78 1821.68 1273.56 1977.46 1275.4C2059.28 1276.37 2141.07 1271.36 2223.4 1278.63C2430.97 1296.97 2650.61 1294.71 2859.07 1294.71C2864.48 1294.71 2924.31 1302.66 2934.79 1302.47C2946.44 1302.26 2908.64 1294.15 2911.08 1299.55" fill="none" opacity="1" stroke="#000000" stroke-linecap="round" stroke-linejoin="round" stroke-width="1"/>
<path d="M1.80645 1293.24C172.436 1293.24 343.001 1292.9 513.559 1292.38C1081.69 1290.65 1649.75 1286.89 2219.91 1286.89C2313.51 1286.89 2540.95 1301.55 2703.06 1305.43C2787.11 1307.44 2878.34 1306.22 2921.93 1320.84C2928.04 1322.89 2891.41 1308.4 2897.41 1311.89C2898.09 1312.29 2897.85 1312.9 2897.85 1313.56" fill="none" opacity="1" stroke="#000000" stroke-linecap="round" stroke-linejoin="round" stroke-width="1"/>
</g>
<g id="Layer-6" vectornator:layerName="Layer 6">
<path d="M191.965 1276.26L193.993 1266.63L199.1 1261.52L204.308 1264.94L207.019 1276.26L207.019 1440.26L191.965 1440.26L191.965 1276.26Z" fill="#333e9a" fill-rule="nonzero" opacity="1" stroke="none"/>
<path d="M769.644 1276.58L771.672 1266.95L776.778 1261.84L781.987 1265.26L784.697 1276.58L784.697 1440.58L769.644 1440.58L769.644 1276.58Z" fill="#333e9a" fill-rule="nonzero" opacity="1" stroke="none"/>
<path d="M1412.46 1283.58L1414.49 1273.96L1419.59 1268.84L1424.8 1272.26L1427.51 1283.58L1427.51 1447.58L1412.46 1447.58L1412.46 1283.58Z" fill="#333e9a" fill-rule="nonzero" opacity="1" stroke="none"/>
<path d="M2010.93 1277.94L2012.95 1268.31L2018.06 1263.2L2023.27 1266.62L2025.98 1277.94L2025.98 1441.94L2010.93 1441.94L2010.93 1277.94Z" fill="#333e9a" fill-rule="nonzero" opacity="1" stroke="none"/>
<path d="M2574.59 1289.8L2576.62 1280.17L2581.73 1275.06L2586.94 1278.48L2589.65 1289.8L2589.65 1453.8L2574.59 1453.8L2574.59 1289.8Z" fill="#333e9a" fill-rule="nonzero" opacity="1" stroke="none"/>
</g>
</svg>
